<svg width="14" height="14" viewBox="0 0 14 14" fill="none" xmlns="http://www.w3.org/2000/svg">
<path d="M6.99984 6.41667C7.46133 6.41667 7.91245 6.27982 8.29617 6.02343C8.67988 5.76704 8.97895 5.40262 9.15556 4.97626C9.33216 4.5499 9.37837 4.08075 9.28834 3.62812C9.1983 3.1755 8.97608 2.75974 8.64975 2.43342C8.32343 2.1071 7.90767 1.88487 7.45505 1.79484C7.00243 1.7048 6.53327 1.75101 6.10691 1.92762C5.68055 2.10422 5.31613 2.40329 5.05974 2.787C4.80335 3.17072 4.6665 3.62184 4.6665 4.08333C4.6665 4.70217 4.91234 5.29567 5.34992 5.73325C5.78751 6.17084 6.381 6.41667 6.99984 6.41667Z" fill="#F25822"/>
<path d="M10.4998 12.2497C10.6545 12.2497 10.8029 12.1882 10.9123 12.0788C11.0217 11.9694 11.0832 11.8211 11.0832 11.6663C11.0832 10.5834 10.653 9.54476 9.88719 8.77899C9.12142 8.01322 8.0828 7.58301 6.99984 7.58301C5.91687 7.58301 4.87826 8.01322 4.11248 8.77899C3.34671 9.54476 2.9165 10.5834 2.9165 11.6663C2.9165 11.8211 2.97796 11.9694 3.08736 12.0788C3.19675 12.1882 3.34513 12.2497 3.49984 12.2497H10.4998Z" fill="#F25822"/>
</svg>
