<svg width="100" height="100" viewBox="0 0 100 100" fill="none" xmlns="http://www.w3.org/2000/svg">
<circle cx="50" cy="50" r="50" fill="#BDE0BC"/>
<path d="M61.6666 36.6667H38.3333C37.0072 36.6667 35.7354 37.1935 34.7977 38.1312C33.86 39.0689 33.3333 40.3407 33.3333 41.6667V58.3334C33.3333 59.6595 33.86 60.9313 34.7977 61.8689C35.7354 62.8066 37.0072 63.3334 38.3333 63.3334H61.6666C62.9927 63.3334 64.2644 62.8066 65.2021 61.8689C66.1398 60.9313 66.6666 59.6595 66.6666 58.3334V41.6667C66.6666 40.3407 66.1398 39.0689 65.2021 38.1312C64.2644 37.1935 62.9927 36.6667 61.6666 36.6667ZM60.5499 40.0001L49.9999 47.9167L39.4499 40.0001H60.5499ZM61.6666 60.0001H38.3333C37.8912 60.0001 37.4673 59.8245 37.1547 59.5119C36.8422 59.1994 36.6666 58.7754 36.6666 58.3334V42.0834L48.9999 51.3334C49.2884 51.5498 49.6393 51.6667 49.9999 51.6667C50.3605 51.6667 50.7114 51.5498 50.9999 51.3334L63.3333 42.0834V58.3334C63.3333 58.7754 63.1577 59.1994 62.8451 59.5119C62.5325 59.8245 62.1086 60.0001 61.6666 60.0001Z" fill="#149211"/>
</svg>
