<svg width="100" height="100" viewBox="0 0 100 100" fill="none" xmlns="http://www.w3.org/2000/svg">
<circle cx="50" cy="50" r="50" fill="#FCD5C8"/>
<path d="M66.6666 49.9999C66.6666 47.8112 66.2355 45.644 65.3979 43.6219C64.5603 41.5998 63.3327 39.7624 61.785 38.2148C60.2374 36.6672 58.4001 35.4395 56.378 34.6019C54.3559 33.7643 52.1886 33.3333 49.9999 33.3333C45.5796 33.3333 41.3404 35.0892 38.2148 38.2148C35.0892 41.3404 33.3333 45.5796 33.3333 49.9999C33.3333 54.4202 35.0892 58.6594 38.2148 61.785C41.3404 64.9106 45.5796 66.6666 49.9999 66.6666C54.4202 66.6666 58.6594 64.9106 61.785 61.785C64.9106 58.6594 66.6666 54.4202 66.6666 49.9999ZM63.2166 48.3333H58.3333C58.0584 44.4135 56.7154 40.6438 54.4499 37.4333C56.7774 38.2599 58.8295 39.7167 60.3774 41.6413C61.9253 43.5659 62.9083 45.8827 63.2166 48.3333ZM45.1333 51.6666H54.9999C54.5734 55.7842 52.8183 59.6512 49.9999 62.6833C47.1834 59.6639 45.4686 55.7821 45.1333 51.6666ZM45.1333 48.3333C45.5214 44.2363 47.2292 40.3761 49.9999 37.3333C52.8411 40.3435 54.6001 44.2133 54.9999 48.3333H45.1333ZM45.7333 37.3833C43.4558 40.6116 42.0913 44.3945 41.7833 48.3333H36.7833C37.0981 45.8524 38.1043 43.5101 39.6869 41.5739C41.2695 39.6376 43.3647 38.1855 45.7333 37.3833ZM36.7833 51.6666H41.7833C42.0577 55.602 43.4131 59.3854 45.6999 62.5999C43.3399 61.7938 41.2532 60.3419 39.677 58.4092C38.1008 56.4765 37.0983 54.1405 36.7833 51.6666ZM54.3666 62.5833C56.6473 59.3677 58.0177 55.5962 58.3333 51.6666H63.2499C62.9347 54.1337 61.9358 56.4634 60.366 58.3925C58.7962 60.3216 56.7181 61.7732 54.3666 62.5833Z" fill="#F25822"/>
</svg>
