<svg width="14" height="14" viewBox="0 0 14 14" fill="none" xmlns="http://www.w3.org/2000/svg">
<path d="M7.00013 12.2499C6.92336 12.2503 6.84726 12.2356 6.77618 12.2066C6.70511 12.1776 6.64047 12.1348 6.58596 12.0807L2.05346 7.54239C1.48492 6.96791 1.16602 6.1923 1.16602 5.38405C1.16602 4.57581 1.48492 3.8002 2.05346 3.22572C2.62645 2.65435 3.40261 2.3335 4.2118 2.3335C5.02098 2.3335 5.79714 2.65435 6.37013 3.22572L7.00013 3.85572L7.63013 3.22572C8.20311 2.65435 8.97928 2.3335 9.78846 2.3335C10.5976 2.3335 11.3738 2.65435 11.9468 3.22572C12.5153 3.8002 12.8342 4.57581 12.8342 5.38405C12.8342 6.1923 12.5153 6.96791 11.9468 7.54239L7.4143 12.0807C7.35979 12.1348 7.29515 12.1776 7.22407 12.2066C7.153 12.2356 7.0769 12.2503 7.00013 12.2499Z" fill="#F25822"/>
</svg>
