<svg width="14" height="15" viewBox="0 0 14 15" fill="none" xmlns="http://www.w3.org/2000/svg">
<path d="M11.1244 4.722C10.1672 3.75862 8.90398 3.15937 7.55239 3.02755C6.20079 2.89574 4.84556 3.23962 3.72033 3.99991C2.5951 4.7602 1.7704 5.88925 1.38839 7.19242C1.00638 8.49559 1.09101 9.89121 1.62769 11.1387C1.68363 11.2546 1.70198 11.3851 1.68019 11.512L1.16686 13.9795C1.14708 14.0741 1.15112 14.1721 1.17861 14.2648C1.2061 14.3574 1.25618 14.4418 1.32436 14.5103C1.38024 14.5658 1.44678 14.6094 1.51997 14.6385C1.59315 14.6675 1.67147 14.6815 1.75019 14.6795H1.86686L4.36352 14.1778C4.49042 14.1626 4.61909 14.1807 4.73686 14.2303C5.98432 14.767 7.37993 14.8516 8.6831 14.4696C9.98627 14.0876 11.1153 13.2629 11.8756 12.1377C12.6359 11.0125 12.9798 9.65723 12.848 8.30563C12.7162 6.95404 12.1169 5.69079 11.1535 4.73366L11.1244 4.722ZM4.66686 9.4295C4.55149 9.4295 4.4387 9.39529 4.34278 9.33119C4.24685 9.26709 4.17208 9.17599 4.12793 9.0694C4.08378 8.96281 4.07222 8.84552 4.09473 8.73236C4.11724 8.61921 4.1728 8.51527 4.25438 8.43368C4.33596 8.3521 4.4399 8.29655 4.55306 8.27404C4.66621 8.25153 4.7835 8.26308 4.89009 8.30723C4.99668 8.35139 5.08778 8.42615 5.15188 8.52208C5.21598 8.61801 5.25019 8.73079 5.25019 8.84616C5.25019 9.00087 5.18873 9.14925 5.07934 9.25864C4.96994 9.36804 4.82157 9.4295 4.66686 9.4295ZM7.00019 9.4295C6.88482 9.4295 6.77204 9.39529 6.67611 9.33119C6.58018 9.26709 6.50541 9.17599 6.46126 9.0694C6.41711 8.96281 6.40556 8.84552 6.42807 8.73236C6.45057 8.61921 6.50613 8.51527 6.58771 8.43368C6.66929 8.3521 6.77323 8.29655 6.88639 8.27404C6.99954 8.25153 7.11683 8.26308 7.22342 8.30723C7.33001 8.35139 7.42112 8.42615 7.48521 8.52208C7.54931 8.61801 7.58352 8.73079 7.58352 8.84616C7.58352 9.00087 7.52207 9.14925 7.41267 9.25864C7.30327 9.36804 7.1549 9.4295 7.00019 9.4295ZM9.33352 9.4295C9.21815 9.4295 9.10537 9.39529 9.00944 9.33119C8.91351 9.26709 8.83875 9.17599 8.79459 9.0694C8.75044 8.96281 8.73889 8.84552 8.7614 8.73236C8.78391 8.61921 8.83946 8.51527 8.92105 8.43368C9.00263 8.3521 9.10657 8.29655 9.21972 8.27404C9.33288 8.25153 9.45017 8.26308 9.55676 8.30723C9.66335 8.35139 9.75445 8.42615 9.81855 8.52208C9.88265 8.61801 9.91686 8.73079 9.91686 8.84616C9.91686 9.00087 9.8554 9.14925 9.746 9.25864C9.63661 9.36804 9.48823 9.4295 9.33352 9.4295Z" fill="#F25822"/>
</svg>
