<svg width="11" height="11" viewBox="0 0 11 11" fill="none" xmlns="http://www.w3.org/2000/svg">
<path d="M7.79167 1.60492C7.79167 1.54414 7.76752 1.48586 7.72454 1.44288C7.68157 1.3999 7.62328 1.37576 7.5625 1.37576H6.41667C5.83968 1.34702 5.27477 1.54781 4.84537 1.93427C4.41597 2.32073 4.15698 2.86144 4.125 3.43826V4.67576H2.97917C2.91839 4.67576 2.8601 4.6999 2.81712 4.74288C2.77414 4.78586 2.75 4.84415 2.75 4.90492V6.09659C2.75 6.15737 2.77414 6.21566 2.81712 6.25864C2.8601 6.30161 2.91839 6.32576 2.97917 6.32576H4.125V9.39659C4.125 9.45737 4.14914 9.51566 4.19212 9.55864C4.2351 9.60161 4.29339 9.62576 4.35417 9.62576H5.72917C5.78994 9.62576 5.84823 9.60161 5.89121 9.55864C5.93419 9.51566 5.95833 9.45737 5.95833 9.39659V6.32576H7.15917C7.21013 6.32649 7.25988 6.31021 7.30055 6.2795C7.34123 6.24879 7.3705 6.20539 7.38375 6.15617L7.71375 4.96451C7.72287 4.93065 7.72409 4.89515 7.71733 4.86074C7.71057 4.82633 7.696 4.79393 7.67475 4.76604C7.6535 4.73814 7.62613 4.7155 7.59475 4.69985C7.56337 4.6842 7.52882 4.67595 7.49375 4.67576H5.95833V3.43826C5.96973 3.32481 6.02301 3.21968 6.10776 3.14341C6.19251 3.06713 6.30265 3.02519 6.41667 3.02576H7.5625C7.62328 3.02576 7.68157 3.00161 7.72454 2.95864C7.76752 2.91566 7.79167 2.85737 7.79167 2.79659V1.60492Z" fill="white"/>
</svg>
