<svg width="11" height="11" viewBox="0 0 11 11" fill="none" xmlns="http://www.w3.org/2000/svg">
<path d="M8.02078 6.41679C7.8866 6.88356 7.62067 7.30174 7.25486 7.62122C6.88905 7.9407 6.43887 8.14791 5.95828 8.21804C5.58246 8.27256 5.1995 8.25058 4.83239 8.15342C4.46527 8.05626 4.12157 7.88592 3.82193 7.65262C3.52228 7.41933 3.27287 7.12789 3.08866 6.7958C2.90445 6.46372 2.78924 6.09784 2.74995 5.72012C2.71951 5.34092 2.76809 4.95953 2.89259 4.60006C3.0171 4.2406 3.21483 3.91087 3.47329 3.63173C3.73175 3.3526 4.04532 3.13012 4.39416 2.97837C4.743 2.82662 5.11953 2.7489 5.49995 2.75012C5.85642 2.75062 6.20953 2.81906 6.54037 2.95179C6.59246 2.97517 6.65141 2.97827 6.70567 2.96047C6.75993 2.94266 6.80559 2.90524 6.8337 2.85554L7.4937 1.64095C7.50791 1.61298 7.51645 1.58247 7.51884 1.55119C7.52123 1.5199 7.51742 1.48845 7.50762 1.45864C7.49783 1.42884 7.48224 1.40125 7.46176 1.37748C7.44129 1.35371 7.41632 1.33422 7.38828 1.32012C6.67957 0.999246 5.90084 0.864051 5.12545 0.927267C4.35005 0.990484 3.60351 1.25003 2.95613 1.68146C2.30875 2.1129 1.78185 2.70202 1.42504 3.39334C1.06823 4.08465 0.893262 4.85542 0.916617 5.63304C0.961784 6.78799 1.43654 7.88447 2.24788 8.70768C3.05922 9.53089 4.14869 10.0215 5.30287 10.0835C6.51192 10.1371 7.6931 9.71031 8.58868 8.89631C9.48426 8.0823 10.0215 6.94711 10.0833 5.73845V4.82179C10.0821 4.76137 10.0576 4.70376 10.0149 4.66104C9.97214 4.61831 9.91453 4.59379 9.85412 4.59262H5.72912C5.66834 4.59262 5.61005 4.61676 5.56707 4.65974C5.52409 4.70272 5.49995 4.76101 5.49995 4.82179V6.19679C5.49995 6.25757 5.52409 6.31585 5.56707 6.35883C5.61005 6.40181 5.66834 6.42595 5.72912 6.42595H8.02078" fill="#AAAAAA"/>
</svg>
