<svg width="11" height="11" viewBox="0 0 11 11" fill="none" xmlns="http://www.w3.org/2000/svg">
<path d="M6.9437 3.85011C6.59241 3.84891 6.24433 3.91698 5.91938 4.05044C5.59443 4.1839 5.29898 4.38012 5.04995 4.62788C4.80091 4.87564 4.60317 5.17008 4.46804 5.49434C4.33291 5.8186 4.26305 6.16632 4.26245 6.51761V9.21261C4.26245 9.32202 4.30591 9.42694 4.38327 9.5043C4.46063 9.58165 4.56555 9.62511 4.67495 9.62511H5.63745C5.74685 9.62511 5.85177 9.58165 5.92913 9.5043C6.00649 9.42694 6.04995 9.32202 6.04995 9.21261V6.51761C6.04986 6.39267 6.0761 6.26911 6.12697 6.155C6.17783 6.04088 6.25217 5.93876 6.34515 5.8553C6.43812 5.77183 6.54764 5.7089 6.66657 5.67061C6.7855 5.63231 6.91116 5.61951 7.03537 5.63303C7.25812 5.66109 7.46283 5.76992 7.61067 5.93888C7.75852 6.10785 7.83921 6.32519 7.83745 6.5497V9.21261C7.83745 9.32202 7.88091 9.42694 7.95827 9.5043C8.03563 9.58165 8.14055 9.62511 8.24995 9.62511H9.21245C9.32185 9.62511 9.42677 9.58165 9.50413 9.5043C9.58149 9.42694 9.62495 9.32202 9.62495 9.21261V6.51761C9.62435 6.16632 9.55449 5.8186 9.41936 5.49434C9.28423 5.17008 9.08649 4.87564 8.83746 4.62788C8.58842 4.38012 8.29297 4.1839 7.96802 4.05044C7.64307 3.91698 7.29499 3.84891 6.9437 3.85011Z" fill="#AAAAAA"/>
<path d="M3.025 4.2627H1.7875C1.55968 4.2627 1.375 4.44738 1.375 4.6752V9.2127C1.375 9.44051 1.55968 9.6252 1.7875 9.6252H3.025C3.25282 9.6252 3.4375 9.44051 3.4375 9.2127V4.6752C3.4375 4.44738 3.25282 4.2627 3.025 4.2627Z" fill="#AAAAAA"/>
<path d="M2.40625 3.4375C2.97579 3.4375 3.4375 2.97579 3.4375 2.40625C3.4375 1.83671 2.97579 1.375 2.40625 1.375C1.83671 1.375 1.375 1.83671 1.375 2.40625C1.375 2.97579 1.83671 3.4375 2.40625 3.4375Z" fill="#AAAAAA"/>
</svg>
