<svg width="11" height="11" viewBox="0 0 11 11" fill="none" xmlns="http://www.w3.org/2000/svg">
<path d="M3.70338 9.16686C4.38112 9.18954 5.05652 9.07613 5.68968 8.83333C6.32284 8.59053 6.9009 8.22328 7.38971 7.75327C7.87852 7.28327 8.26815 6.72004 8.53558 6.09689C8.80301 5.47374 8.94281 4.8033 8.94672 4.12519C9.25731 3.74084 9.48794 3.29828 9.62505 2.82353C9.63529 2.78602 9.63446 2.74635 9.62267 2.7093C9.61088 2.67225 9.58864 2.63939 9.55861 2.61469C9.52858 2.58999 9.49205 2.5745 9.45343 2.57008C9.4148 2.56566 9.37571 2.5725 9.34088 2.58978C9.17839 2.66799 8.99546 2.69326 8.81786 2.66201C8.64025 2.63077 8.47692 2.54459 8.35088 2.41561C8.18999 2.23942 7.99536 2.09731 7.77854 1.99771C7.56171 1.89812 7.3271 1.84305 7.08861 1.83579C6.85012 1.82852 6.61259 1.8692 6.39011 1.95541C6.16762 2.04163 5.96471 2.17162 5.79338 2.33769C5.55881 2.56487 5.38699 2.84887 5.29463 3.16209C5.20227 3.4753 5.19251 3.80709 5.2663 4.12519C3.73088 4.21686 2.67672 3.48811 1.83338 2.48894C1.80805 2.46025 1.77491 2.43956 1.73801 2.42939C1.7011 2.41922 1.66204 2.42002 1.62559 2.43169C1.58913 2.44335 1.55686 2.46538 1.53272 2.49508C1.50858 2.52478 1.4936 2.56087 1.48963 2.59894C1.32897 3.49014 1.44487 4.40915 1.82175 5.23256C2.19863 6.05596 2.81845 6.74433 3.59797 7.20519C3.0753 7.80461 2.34131 8.179 1.54922 8.25019C1.50678 8.25723 1.46761 8.27736 1.43718 8.30776C1.40675 8.33817 1.38659 8.37733 1.37952 8.41976C1.37244 8.46219 1.37882 8.50577 1.39774 8.5444C1.41666 8.58303 1.44719 8.61477 1.48505 8.63519C2.17416 8.97957 2.93303 9.16145 3.70338 9.16686Z" fill="#AAAAAA"/>
</svg>
