<svg width="150" height="150" viewBox="0 0 150 150" fill="none" xmlns="http://www.w3.org/2000/svg">
<path d="M40 42C40 40.8954 40.8954 40 42 40H108C109.105 40 110 40.8954 110 42V108C110 109.105 109.105 110 108 110H42C40.8954 110 40 109.105 40 108V42Z" fill="#E5E5E5"/>
<path d="M42 41H108V39H42V41ZM109 42V108H111V42H109ZM108 109H42V111H108V109ZM41 108V42H39V108H41ZM42 109C41.4477 109 41 108.552 41 108H39C39 109.657 40.3431 111 42 111V109ZM109 108C109 108.552 108.552 109 108 109V111C109.657 111 111 109.657 111 108H109ZM108 41C108.552 41 109 41.4477 109 42H111C111 40.3431 109.657 39 108 39V41ZM42 39C40.3431 39 39 40.3431 39 42H41C41 41.4477 41.4477 41 42 41V39Z" fill="black" fill-opacity="0.1"/>
<rect x="43" y="43" width="55.375" height="26" rx="2" fill="#E5E5E5"/>
<rect x="43.5" y="43.5" width="54.375" height="25" rx="1.5" stroke="black" stroke-opacity="0.14902"/>
<path d="M52.3438 53C52.2969 52.6042 52.1068 52.2969 51.7734 52.0781C51.4401 51.8594 51.0313 51.75 50.5469 51.75C50.1927 51.75 49.8828 51.8073 49.6172 51.9219C49.3542 52.0365 49.1484 52.194 49 52.3945C48.8542 52.5951 48.7813 52.8229 48.7813 53.0781C48.7813 53.2917 48.832 53.4753 48.9336 53.6289C49.0378 53.7799 49.1706 53.9062 49.332 54.0078C49.4935 54.1068 49.6628 54.1888 49.8398 54.2539C50.0169 54.3164 50.1797 54.3672 50.3281 54.4062L51.1406 54.625C51.349 54.6797 51.5807 54.7552 51.8359 54.8516C52.0938 54.9479 52.3398 55.0794 52.5742 55.2461C52.8112 55.4102 53.0065 55.6211 53.1602 55.8789C53.3138 56.1367 53.3906 56.4531 53.3906 56.8281C53.3906 57.2604 53.2773 57.651 53.0508 58C52.8268 58.349 52.4987 58.6263 52.0664 58.832C51.6367 59.0378 51.1146 59.1406 50.5 59.1406C49.9271 59.1406 49.431 59.0482 49.0117 58.8633C48.5951 58.6784 48.2669 58.4206 48.0273 58.0898C47.7904 57.7591 47.6563 57.375 47.625 56.9375H48.625C48.651 57.2396 48.7526 57.4896 48.9297 57.6875C49.1094 57.8828 49.3359 58.0286 49.6094 58.125C49.8854 58.2187 50.1823 58.2656 50.5 58.2656C50.8698 58.2656 51.2018 58.2057 51.4961 58.0859C51.7904 57.9635 52.0234 57.7943 52.1953 57.5781C52.3672 57.3594 52.4531 57.1042 52.4531 56.8125C52.4531 56.5469 52.3789 56.3307 52.2305 56.1641C52.082 55.9974 51.8867 55.862 51.6445 55.7578C51.4023 55.6536 51.1406 55.5625 50.8594 55.4844L49.875 55.2031C49.25 55.0234 48.7552 54.7669 48.3906 54.4336C48.026 54.1003 47.8438 53.6641 47.8438 53.125C47.8438 52.6771 47.9648 52.2865 48.207 51.9531C48.4518 51.6172 48.7799 51.3568 49.1914 51.1719C49.6055 50.9844 50.0677 50.8906 50.5781 50.8906C51.0938 50.8906 51.5521 50.9831 51.9531 51.168C52.3542 51.3503 52.6719 51.6003 52.9062 51.918C53.1432 52.2357 53.2682 52.5964 53.2813 53H52.3438ZM57.374 59.125C56.7959 59.125 56.2972 58.9974 55.8779 58.7422C55.4613 58.4844 55.1396 58.125 54.9131 57.6641C54.6891 57.2005 54.5771 56.6615 54.5771 56.0469C54.5771 55.4323 54.6891 54.8906 54.9131 54.4219C55.1396 53.9505 55.4548 53.5833 55.8584 53.3203C56.2646 53.0547 56.7386 52.9219 57.2803 52.9219C57.5928 52.9219 57.9014 52.974 58.2061 53.0781C58.5107 53.1823 58.7881 53.3516 59.0381 53.5859C59.2881 53.8177 59.4873 54.125 59.6357 54.5078C59.7842 54.8906 59.8584 55.362 59.8584 55.9219V56.3125H55.2334V55.5156H58.9209C58.9209 55.1771 58.8532 54.875 58.7178 54.6094C58.585 54.3437 58.3949 54.1341 58.1475 53.9805C57.9027 53.8268 57.6136 53.75 57.2803 53.75C56.9131 53.75 56.5954 53.8411 56.3271 54.0234C56.0615 54.2031 55.8571 54.4375 55.7139 54.7266C55.5706 55.0156 55.499 55.3255 55.499 55.6562V56.1875C55.499 56.6406 55.5771 57.0247 55.7334 57.3398C55.8923 57.6523 56.1123 57.8906 56.3936 58.0547C56.6748 58.2161 57.0016 58.2969 57.374 58.2969C57.6162 58.2969 57.835 58.263 58.0303 58.1953C58.2282 58.125 58.3988 58.0208 58.542 57.8828C58.6852 57.7422 58.7959 57.5677 58.874 57.3594L59.7646 57.6094C59.6709 57.9115 59.5133 58.1771 59.292 58.4062C59.0706 58.6328 58.7972 58.8099 58.4717 58.9375C58.1462 59.0625 57.7803 59.125 57.374 59.125ZM63.6982 59.125C63.1357 59.125 62.6514 58.9922 62.2451 58.7266C61.8389 58.4609 61.5264 58.0951 61.3076 57.6289C61.0889 57.1628 60.9795 56.6302 60.9795 56.0312C60.9795 55.4219 61.0915 54.8841 61.3154 54.418C61.542 53.9492 61.8571 53.5833 62.2607 53.3203C62.667 53.0547 63.141 52.9219 63.6826 52.9219C64.1045 52.9219 64.4847 53 64.8232 53.1562C65.1618 53.3125 65.4391 53.5312 65.6553 53.8125C65.8714 54.0937 66.0055 54.4219 66.0576 54.7969H65.1357C65.0654 54.5234 64.9092 54.2812 64.667 54.0703C64.4274 53.8568 64.1045 53.75 63.6982 53.75C63.3389 53.75 63.0238 53.8437 62.7529 54.0312C62.4847 54.2161 62.2751 54.4779 62.124 54.8164C61.9756 55.1523 61.9014 55.5469 61.9014 56C61.9014 56.4635 61.9743 56.8672 62.1201 57.2109C62.2686 57.5547 62.4769 57.8216 62.7451 58.0117C63.016 58.2018 63.3337 58.2969 63.6982 58.2969C63.9378 58.2969 64.1553 58.2552 64.3506 58.1719C64.5459 58.0885 64.7113 57.9688 64.8467 57.8125C64.9821 57.6562 65.0785 57.4687 65.1357 57.25H66.0576C66.0055 57.6042 65.8766 57.9232 65.6709 58.207C65.4678 58.4883 65.1982 58.7122 64.8623 58.8789C64.529 59.043 64.141 59.125 63.6982 59.125ZM70.0146 53V53.7812H66.9053V53H70.0146ZM67.8115 51.5625H68.7334V57.2812C68.7334 57.5417 68.7712 57.737 68.8467 57.8672C68.9248 57.9948 69.0238 58.0807 69.1436 58.125C69.266 58.1667 69.3949 58.1875 69.5303 58.1875C69.6318 58.1875 69.7152 58.1823 69.7803 58.1719C69.8454 58.1589 69.8975 58.1484 69.9365 58.1406L70.124 58.9687C70.0615 58.9922 69.9743 59.0156 69.8623 59.0391C69.7503 59.0651 69.6084 59.0781 69.4365 59.0781C69.1761 59.0781 68.9209 59.0221 68.6709 58.9102C68.4235 58.7982 68.2178 58.6276 68.0537 58.3984C67.8923 58.1693 67.8115 57.8802 67.8115 57.5312V51.5625ZM71.4014 59V53H72.3232V59H71.4014ZM71.8701 52C71.6904 52 71.5355 51.9388 71.4053 51.8164C71.2777 51.694 71.2139 51.5469 71.2139 51.375C71.2139 51.2031 71.2777 51.056 71.4053 50.9336C71.5355 50.8112 71.6904 50.75 71.8701 50.75C72.0498 50.75 72.2035 50.8112 72.3311 50.9336C72.4613 51.056 72.5264 51.2031 72.5264 51.375C72.5264 51.5469 72.4613 51.694 72.3311 51.8164C72.2035 51.9388 72.0498 52 71.8701 52ZM76.4492 59.125C75.9076 59.125 75.4323 58.9961 75.0234 58.7383C74.6172 58.4805 74.2995 58.1198 74.0703 57.6562C73.8438 57.1927 73.7305 56.651 73.7305 56.0312C73.7305 55.4062 73.8438 54.8607 74.0703 54.3945C74.2995 53.9284 74.6172 53.5664 75.0234 53.3086C75.4323 53.0508 75.9076 52.9219 76.4492 52.9219C76.9909 52.9219 77.4648 53.0508 77.8711 53.3086C78.2799 53.5664 78.5977 53.9284 78.8242 54.3945C79.0534 54.8607 79.168 55.4062 79.168 56.0312C79.168 56.651 79.0534 57.1927 78.8242 57.6562C78.5977 58.1198 78.2799 58.4805 77.8711 58.7383C77.4648 58.9961 76.9909 59.125 76.4492 59.125ZM76.4492 58.2969C76.8607 58.2969 77.1992 58.1914 77.4648 57.9805C77.7305 57.7695 77.9271 57.4922 78.0547 57.1484C78.1823 56.8047 78.2461 56.4323 78.2461 56.0312C78.2461 55.6302 78.1823 55.2565 78.0547 54.9102C77.9271 54.5638 77.7305 54.2839 77.4648 54.0703C77.1992 53.8568 76.8607 53.75 76.4492 53.75C76.0378 53.75 75.6992 53.8568 75.4336 54.0703C75.168 54.2839 74.9714 54.5638 74.8438 54.9102C74.7161 55.2565 74.6523 55.6302 74.6523 56.0312C74.6523 56.4323 74.7161 56.8047 74.8438 57.1484C74.9714 57.4922 75.168 57.7695 75.4336 57.9805C75.6992 58.1914 76.0378 58.2969 76.4492 58.2969ZM81.4971 55.3906V59H80.5752V53H81.4658V53.9375H81.5439C81.6846 53.6328 81.8981 53.388 82.1846 53.2031C82.471 53.0156 82.8408 52.9219 83.2939 52.9219C83.7002 52.9219 84.0557 53.0052 84.3604 53.1719C84.665 53.3359 84.902 53.5859 85.0713 53.9219C85.2406 54.2552 85.3252 54.6771 85.3252 55.1875V59H84.4033V55.25C84.4033 54.7786 84.2809 54.4115 84.0361 54.1484C83.7913 53.8828 83.4554 53.75 83.0283 53.75C82.734 53.75 82.471 53.8138 82.2393 53.9414C82.0101 54.069 81.8291 54.2552 81.6963 54.5C81.5635 54.7448 81.4971 55.0417 81.4971 55.3906ZM92.9004 51V59H91.9316V52.0156H91.8848L89.9316 53.3125V52.3281L91.9316 51H92.9004Z" fill="black"/>
</svg>
