<svg width="54" height="53" viewBox="0 0 54 53" fill="none" xmlns="http://www.w3.org/2000/svg">
<path d="M0 -1H54V53H0V-1Z" fill="#DE2910"/>
<path d="M1.59996 21.2L6.99989 5L12.3998 21.2L-2 11.3H15.9998L1.59996 21.2Z" fill="#FFDE00"/>
<path d="M25.0211 5.31033L19.4639 6.54185L23.1708 2.22227L22.8072 8.03585L19.7233 2.88908L25.0211 5.31033Z" fill="#FFDE00"/>
<path d="M30.6297 12.4184L25.0299 11.3982L30.1219 8.85437L27.5321 14.0719L26.6857 8.13192L30.6297 12.4184Z" fill="#FFDE00"/>
<path d="M29.8128 22.3906L25.1159 19.1752L30.8026 18.9294L26.31 22.637L27.9598 16.8683L29.8128 22.3906Z" fill="#FFDE00"/>
<path d="M22.7486 28.9049L19.6581 24.1248L24.9985 26.0945L19.4225 27.7792L23.1723 23.0953L22.7486 28.9049Z" fill="#FFDE00"/>
</svg>
