<svg width="52" height="51" viewBox="0 0 52 51" fill="none" xmlns="http://www.w3.org/2000/svg">
<rect x="7" y="5" width="37" height="34" fill="white"/>
<g filter="url(#filter0_d_2991_5)">
<path d="M36.12 0C43.5671 0 47.7712 4.14735 47.7931 11.4595V31.5405C47.7931 38.8505 43.5671 43 36.12 43H15.6709C8.22384 43 4 38.8505 4 31.5405V11.4595C4 4.14735 8.22384 0 15.6709 0H36.12ZM26.9914 8.8795C26.3761 8.514 25.6316 8.514 25.0426 8.8795C24.4492 9.24285 24.1229 9.9115 24.1864 10.578V32.4865C24.2981 33.411 25.0842 34.099 26.0038 34.099C26.9476 34.099 27.7337 33.411 27.8213 32.4865V10.578C27.9088 9.9115 27.5826 9.24285 26.9914 8.8795ZM16.7657 15.9315C16.1745 15.566 15.4278 15.566 14.8388 15.9315C14.2454 16.297 13.9191 16.9614 13.9848 17.63V32.4865C14.0702 33.411 14.8585 34.099 15.8 34.099C16.7438 34.099 17.5299 33.411 17.6175 32.4865V17.63C17.6853 16.9614 17.3547 16.297 16.7657 15.9315ZM37.0397 23.736C36.4507 23.3705 35.7062 23.3705 35.0931 23.736C34.4997 24.1015 34.1734 24.7444 34.261 25.4345V32.4865C34.3486 33.411 35.1347 34.099 36.0784 34.099C36.9981 34.099 37.7842 33.411 37.8959 32.4865V25.4345C37.9594 24.7444 37.6331 24.1015 37.0397 23.736Z" fill="#058E6E"/>
</g>
<defs>
<filter id="filter0_d_2991_5" x="0" y="0" width="51.793" height="51" filterUnits="userSpaceOnUse" color-interpolation-filters="sRGB">
<feFlood flood-opacity="0" result="BackgroundImageFix"/>
<feColorMatrix in="SourceAlpha" type="matrix" values="0 0 0 0 0 0 0 0 0 0 0 0 0 0 0 0 0 0 127 0" result="hardAlpha"/>
<feOffset dy="4"/>
<feGaussianBlur stdDeviation="2"/>
<feComposite in2="hardAlpha" operator="out"/>
<feColorMatrix type="matrix" values="0 0 0 0 0 0 0 0 0 0 0 0 0 0 0 0 0 0 0.25 0"/>
<feBlend mode="normal" in2="BackgroundImageFix" result="effect1_dropShadow_2991_5"/>
<feBlend mode="normal" in="SourceGraphic" in2="effect1_dropShadow_2991_5" result="shape"/>
</filter>
</defs>
</svg>
