<svg width="50" height="50" viewBox="0 0 50 50" fill="none" xmlns="http://www.w3.org/2000/svg">
<circle cx="24.9959" cy="25.2718" r="24.6336" fill="#058E6E"/>
<path d="M15.38 21.9944C15.4333 20.9278 15.8067 20.1064 16.5 19.5304C17.204 18.9438 18.1267 18.6504 19.268 18.6504C20.0467 18.6504 20.7133 18.7891 21.268 19.0664C21.8227 19.3331 22.2387 19.7011 22.516 20.1704C22.804 20.6291 22.948 21.1518 22.948 21.7384C22.948 22.4104 22.772 22.9811 22.42 23.4504C22.0787 23.9091 21.668 24.2184 21.188 24.3784V24.4424C21.8067 24.6344 22.2867 24.9758 22.628 25.4664C22.98 25.9571 23.156 26.5864 23.156 27.3544C23.156 27.9944 23.0067 28.5651 22.708 29.0664C22.42 29.5678 21.988 29.9624 21.412 30.2504C20.8467 30.5278 20.164 30.6664 19.364 30.6664C18.1587 30.6664 17.1773 30.3624 16.42 29.7544C15.6627 29.1464 15.2627 28.2504 15.22 27.0664H17.396C17.4173 27.5891 17.5933 28.0104 17.924 28.3304C18.2653 28.6398 18.7293 28.7944 19.316 28.7944C19.86 28.7944 20.276 28.6451 20.564 28.3464C20.8627 28.0371 21.012 27.6424 21.012 27.1624C21.012 26.5224 20.8093 26.0638 20.404 25.7864C19.9987 25.5091 19.3693 25.3704 18.516 25.3704H18.052V23.5304H18.516C20.0307 23.5304 20.788 23.0238 20.788 22.0104C20.788 21.5518 20.6493 21.1944 20.372 20.9384C20.1053 20.6824 19.716 20.5544 19.204 20.5544C18.7027 20.5544 18.3133 20.6931 18.036 20.9704C17.7693 21.2371 17.6147 21.5784 17.572 21.9944H15.38ZM33.5501 25.8664H30.5261V28.9704H28.4141V25.8664H25.3901V23.9144H28.4141V20.8104H30.5261V23.9144H33.5501V25.8664Z" fill="white"/>
</svg>
