<svg width="19" height="19" viewBox="0 0 19 19" fill="none" xmlns="http://www.w3.org/2000/svg">
<path d="M13.9356 0C17.1665 0 18.9905 1.79936 19 4.9718V13.6841C19 16.8556 17.1665 18.6559 13.9356 18.6559H5.0635C1.83255 18.6559 0 16.8556 0 13.6841V4.9718C0 1.79936 1.83255 0 5.0635 0H13.9356ZM9.975 3.85245C9.70805 3.69387 9.38505 3.69387 9.1295 3.85245C8.87205 4.01009 8.7305 4.30019 8.75805 4.58935V14.0945C8.8065 14.4956 9.14755 14.7941 9.54655 14.7941C9.956 14.7941 10.2971 14.4956 10.3351 14.0945V4.58935C10.3731 4.30019 10.2315 4.01009 9.975 3.85245ZM5.5385 6.91201C5.282 6.75344 4.95805 6.75344 4.7025 6.91201C4.44505 7.07059 4.3035 7.35882 4.332 7.64892V14.0945C4.36905 14.4956 4.71105 14.7941 5.11955 14.7941C5.529 14.7941 5.87005 14.4956 5.90805 14.0945V7.64892C5.9375 7.35882 5.79405 7.07059 5.5385 6.91201ZM14.3346 10.2981C14.079 10.1395 13.756 10.1395 13.49 10.2981C13.2326 10.4566 13.091 10.7355 13.129 11.035V14.0945C13.167 14.4956 13.5081 14.7941 13.9175 14.7941C14.3165 14.7941 14.6576 14.4956 14.706 14.0945V11.035C14.7336 10.7355 14.592 10.4566 14.3346 10.2981Z" fill="#393939"/>
</svg>
