<svg width="20" height="20" viewBox="0 0 20 20" fill="none" xmlns="http://www.w3.org/2000/svg">
<path d="M6.89985 2.08411C7.42485 2.10008 7.93319 2.19175 8.42568 2.35925H8.47485C8.50818 2.37508 8.53319 2.39258 8.54985 2.40841C8.73402 2.46758 8.90819 2.53425 9.07485 2.62591L9.39152 2.76758C9.51652 2.83425 9.66652 2.95841 9.74985 3.00925C9.83319 3.05841 9.92485 3.10925 9.99985 3.16675C10.9257 2.45925 12.0499 2.07591 13.2082 2.08411C13.734 2.08411 14.259 2.15841 14.7582 2.32591C17.834 3.32591 18.9424 6.70091 18.0165 9.65091C17.4915 11.1584 16.6332 12.5342 15.509 13.6584C13.8999 15.2167 12.134 16.6001 10.2332 17.7917L10.0249 17.9176L9.80819 17.7834C7.90069 16.6001 6.12485 15.2167 4.50068 13.6501C3.38402 12.5259 2.52485 11.1584 1.99152 9.65091C1.04985 6.70091 2.15818 3.32591 5.26735 2.30841C5.50902 2.22508 5.75818 2.16675 6.00818 2.13425H6.10818C6.34235 2.10008 6.57485 2.08411 6.80819 2.08411H6.89985ZM14.3249 4.71758C13.9832 4.60008 13.6082 4.78425 13.4832 5.13425C13.3665 5.48425 13.5499 5.86758 13.8999 5.99175C14.434 6.19175 14.7915 6.71758 14.7915 7.30008V7.32591C14.7757 7.51675 14.8332 7.70091 14.9499 7.84258C15.0665 7.98425 15.2415 8.06675 15.4249 8.08425C15.7665 8.07508 16.0582 7.80091 16.0832 7.45008V7.35091C16.1082 6.18341 15.4007 5.12591 14.3249 4.71758Z" fill="#393939"/>
</svg>
