<svg width="15" height="15" viewBox="0 0 15 15" fill="none" xmlns="http://www.w3.org/2000/svg">
<path d="M7.3335 3.7395C5.3335 3.7395 3.73975 5.3645 3.73975 7.33325C3.73975 9.33325 5.3335 10.927 7.3335 10.927C9.30225 10.927 10.9272 9.33325 10.9272 7.33325C10.9272 5.3645 9.30225 3.7395 7.3335 3.7395ZM7.3335 9.677C6.05225 9.677 4.98975 8.64575 4.98975 7.33325C4.98975 6.052 6.021 5.02075 7.3335 5.02075C8.61475 5.02075 9.646 6.052 9.646 7.33325C9.646 8.64575 8.61475 9.677 7.3335 9.677ZM11.896 3.6145C11.896 3.14575 11.521 2.77075 11.0522 2.77075C10.5835 2.77075 10.2085 3.14575 10.2085 3.6145C10.2085 4.08325 10.5835 4.45825 11.0522 4.45825C11.521 4.45825 11.896 4.08325 11.896 3.6145ZM14.271 4.45825C14.2085 3.33325 13.9585 2.33325 13.146 1.52075C12.3335 0.708252 11.3335 0.458252 10.2085 0.395752C9.05225 0.333252 5.5835 0.333252 4.42725 0.395752C3.30225 0.458252 2.3335 0.708252 1.48975 1.52075C0.677246 2.33325 0.427246 3.33325 0.364746 4.45825C0.302246 5.6145 0.302246 9.08325 0.364746 10.2395C0.427246 11.3645 0.677246 12.3333 1.48975 13.177C2.3335 13.9895 3.30225 14.2395 4.42725 14.302C5.5835 14.3645 9.05225 14.3645 10.2085 14.302C11.3335 14.2395 12.3335 13.9895 13.146 13.177C13.9585 12.3333 14.2085 11.3645 14.271 10.2395C14.3335 9.08325 14.3335 5.6145 14.271 4.45825ZM12.771 11.4583C12.5522 12.0833 12.0522 12.552 11.4585 12.802C10.521 13.177 8.3335 13.0833 7.3335 13.0833C6.30225 13.0833 4.11475 13.177 3.2085 12.802C2.5835 12.552 2.11475 12.0833 1.86475 11.4583C1.48975 10.552 1.5835 8.3645 1.5835 7.33325C1.5835 6.33325 1.48975 4.14575 1.86475 3.20825C2.11475 2.6145 2.5835 2.14575 3.2085 1.89575C4.11475 1.52075 6.30225 1.6145 7.3335 1.6145C8.3335 1.6145 10.521 1.52075 11.4585 1.89575C12.0522 2.1145 12.521 2.6145 12.771 3.20825C13.146 4.14575 13.0522 6.33325 13.0522 7.33325C13.0522 8.3645 13.146 10.552 12.771 11.4583Z" fill="white"/>
</svg>
