<svg width="15" height="15" viewBox="0 0 15 15" fill="none" xmlns="http://www.w3.org/2000/svg">
<path d="M13.3335 0.333252H1.30225C0.770996 0.333252 0.333496 0.802002 0.333496 1.3645V13.3333C0.333496 13.8958 0.770996 14.3333 1.30225 14.3333H13.3335C13.8647 14.3333 14.3335 13.8958 14.3335 13.3333V1.3645C14.3335 0.802002 13.8647 0.333252 13.3335 0.333252ZM4.55225 12.3333H2.48975V5.677H4.55225V12.3333ZM3.521 4.7395C2.8335 4.7395 2.30225 4.20825 2.30225 3.552C2.30225 2.89575 2.8335 2.33325 3.521 2.33325C4.17725 2.33325 4.7085 2.89575 4.7085 3.552C4.7085 4.20825 4.17725 4.7395 3.521 4.7395ZM12.3335 12.3333H10.2397V9.08325C10.2397 8.33325 10.2397 7.33325 9.17725 7.33325C8.0835 7.33325 7.92725 8.177 7.92725 9.052V12.3333H5.86475V5.677H7.8335V6.58325H7.86475C8.146 6.052 8.8335 5.4895 9.8335 5.4895C11.9272 5.4895 12.3335 6.89575 12.3335 8.677V12.3333Z" fill="white"/>
</svg>
