<svg width="43" height="43" viewBox="0 0 43 43" fill="none" xmlns="http://www.w3.org/2000/svg">
<path d="M19.1231 12.0645L19.1014 12.0636H19.0796C18.4706 12.0636 17.8871 12.2034 17.3404 12.4766L17.3194 12.487L17.299 12.4985C16.5989 12.8903 16.0329 13.5081 15.7179 14.2524L15.7121 14.2659L15.7068 14.2796C15.6035 14.5451 15.4961 14.9893 15.4254 15.2985C15.3866 15.4683 15.3526 15.6265 15.328 15.7445C15.3158 15.8033 15.3056 15.8538 15.2981 15.8917C15.2945 15.9102 15.291 15.9285 15.2881 15.9446C15.2868 15.9517 15.2849 15.9626 15.2829 15.9747C15.0426 17.2767 14.9209 19.3087 14.9209 21.4898C14.9209 23.5922 15.0452 25.5295 15.2396 26.8251L15.2885 27.151L15.3127 27.1751C15.3392 27.307 15.3737 27.4761 15.4137 27.6567C15.4607 27.8688 15.5177 28.1075 15.5817 28.3307C15.6412 28.538 15.7237 28.7933 15.8343 29.0051L15.8351 29.0065C16.4562 30.1918 17.6763 30.9364 18.9976 30.9364H19.0796H19.0963L19.1129 30.9359C19.5912 30.92 20.2017 30.7292 20.5911 30.5945C20.8086 30.5192 21.0059 30.4438 21.1524 30.3842C21.2247 30.3548 21.2908 30.3268 21.3437 30.3028C21.3666 30.2923 21.3986 30.2775 21.4314 30.2605C22.6043 29.7647 24.2525 28.8102 25.8065 27.7654C27.3755 26.7104 28.9482 25.4967 29.892 24.4795L30.0013 24.3702C30.2629 24.1088 30.5768 23.7286 30.6658 23.6108C31.1361 22.9926 31.361 22.2434 31.361 21.5123C31.361 20.7049 31.1093 19.9339 30.6188 19.2995L30.5798 19.249L30.5346 19.2038C30.5351 19.2043 30.535 19.2042 30.5341 19.2033C30.5322 19.2013 30.5267 19.1956 30.5162 19.1844C30.5025 19.1697 30.485 19.1509 30.4631 19.1271C30.4228 19.0834 30.3612 19.0162 30.3008 18.9508C30.1789 18.8187 30.0243 18.6533 29.8702 18.4987C28.9489 17.5146 27.3627 16.2811 25.7566 15.1972C24.1445 14.1091 22.4036 13.0984 21.1527 12.6063C20.9504 12.5245 20.6166 12.4026 20.2663 12.2967C19.9385 12.1976 19.4952 12.0807 19.1231 12.0645ZM21.5 1.25C32.6596 1.25 41.75 10.3353 41.75 21.5123C41.75 32.6639 32.6604 41.75 21.5 41.75C10.3397 41.75 1.25 32.6639 1.25 21.5123C1.25 10.3353 10.3404 1.25 21.5 1.25Z" stroke="white" stroke-width="2"/>
</svg>
