<svg width="51" height="51" viewBox="0 0 51 51" fill="none" xmlns="http://www.w3.org/2000/svg">
<path d="M19.2829 19.9747C19.0426 21.2767 18.9209 23.3087 18.9209 25.4898C18.9209 27.5922 19.0452 29.5295 19.2396 30.8251L19.2885 31.151L19.3127 31.1751C19.3392 31.307 19.3737 31.4761 19.4137 31.6567C19.4607 31.8688 19.5177 32.1075 19.5817 32.3307C19.6412 32.538 19.7237 32.7933 19.8343 33.0051L19.8351 33.0065C20.4562 34.1918 21.6763 34.9364 22.9976 34.9364H23.0796H23.0963L23.1129 34.9359C23.5912 34.92 24.2017 34.7292 24.5911 34.5945C24.8086 34.5192 25.0059 34.4438 25.1524 34.3842C25.2247 34.3548 25.2908 34.3268 25.3437 34.3028C25.3666 34.2923 25.3986 34.2775 25.4314 34.2605C26.6043 33.7647 28.2525 32.8102 29.8065 31.7654C31.3755 30.7104 32.9482 29.4967 33.892 28.4795L34.0013 28.3702C34.2631 28.1086 34.5773 27.728 34.666 27.6105C35.1362 26.9924 35.361 26.2433 35.361 25.5123C35.361 24.7049 35.1093 23.9339 34.6188 23.2995L34.5798 23.249L34.5348 23.204C34.5354 23.2046 34.5341 23.2033 34.5302 23.1992C34.5272 23.196 34.5226 23.1912 34.5162 23.1844C34.5025 23.1697 34.485 23.1509 34.4631 23.1271C34.4477 23.1104 34.4292 23.0903 34.4089 23.0682C34.376 23.0324 34.3382 22.9912 34.3008 22.9508C34.1789 22.8187 34.0243 22.6533 33.8702 22.4987C32.9489 21.5146 31.3627 20.2811 29.7566 19.1972C28.1445 18.1091 26.4035 17.0983 25.1527 16.6063C24.9503 16.5244 24.6166 16.4026 24.2663 16.2967C23.9385 16.1976 23.4952 16.0807 23.1231 16.0645L23.1014 16.0636H23.0796C22.4706 16.0636 21.8871 16.2034 21.3404 16.4766L21.3194 16.487L21.299 16.4985C20.5989 16.8903 20.0329 17.5081 19.7179 18.2524L19.7121 18.2659L19.7068 18.2796C19.6035 18.5451 19.4961 18.9893 19.4254 19.2985C19.3866 19.4683 19.3526 19.6265 19.328 19.7445C19.3158 19.8033 19.3056 19.8538 19.2981 19.8917C19.2945 19.9102 19.291 19.9285 19.2881 19.9446C19.2868 19.9517 19.2849 19.9626 19.2829 19.9747ZM19.2829 19.9747C19.2841 19.9683 19.2853 19.9618 19.2865 19.9554L20.2695 20.1388M19.2829 19.9747C19.2828 19.9753 19.2827 19.9758 19.2827 19.9764C19.2817 19.9824 19.2798 19.9943 19.2779 20.009C19.277 20.0162 19.2754 20.0289 19.274 20.0447C19.273 20.0549 19.2695 20.0917 19.2695 20.1388H20.2695M20.2695 20.1388C20.2695 20.1183 20.4952 19.0112 20.6388 18.6422L33.1713 27.7859C31.4484 29.6516 27.1614 32.4603 24.9872 33.3624C24.9872 33.3829 23.695 33.9159 23.0796 33.9364H22.9976C22.0541 33.9364 21.1721 33.4034 20.7208 32.5423C20.5356 32.1875 20.362 31.3219 20.2787 30.9064C20.2512 30.7697 20.2336 30.6818 20.2285 30.6767C20.0439 29.4466 19.9209 27.5625 19.9209 25.4898C19.9209 23.3166 20.0439 21.3484 20.2695 20.1388ZM25.5 5.25C36.6596 5.25 45.75 14.3353 45.75 25.5123C45.75 36.6639 36.6604 45.75 25.5 45.75C14.3397 45.75 5.25 36.6639 5.25 25.5123C5.25 14.3353 14.3404 5.25 25.5 5.25Z" stroke="white" stroke-width="2"/>
</svg>
