<svg width="20" height="13" viewBox="0 0 20 13" fill="none" xmlns="http://www.w3.org/2000/svg">
<path d="M10 0C12.0683 0 14.0293 0.569226 15.7366 1.62306C17.4439 2.66921 18.8976 4.19996 19.9415 6.11533C20.0195 6.26149 20.0195 6.43071 19.9415 6.56917C17.8537 10.3999 14.1366 12.6922 10 12.6922H9.99024C5.86341 12.6922 2.14634 10.3999 0.0585366 6.56917C-0.0195122 6.43071 -0.0195122 6.26149 0.0585366 6.11533C2.14634 2.2846 5.86341 0 9.99024 0H10ZM10 3.2692C7.8439 3.2692 6.09756 4.64611 6.09756 6.3461C6.09756 8.03839 7.8439 9.4153 10 9.4153C12.1463 9.4153 13.8927 8.03839 13.8927 6.3461C13.8927 4.64611 12.1463 3.2692 10 3.2692ZM10.0012 4.42135C11.3378 4.42135 12.4304 5.28288 12.4304 6.34441C12.4304 7.39824 11.3378 8.25978 10.0012 8.25978C8.65483 8.25978 7.56215 7.39824 7.56215 6.34441C7.56215 6.21364 7.58166 6.09056 7.61093 5.96749H7.65971C8.74263 5.96749 9.62068 5.29057 9.65971 4.44442C9.76702 4.42904 9.8841 4.42135 10.0012 4.42135Z" fill="#CCCCCC"/>
</svg>
