<svg width="44" height="44" viewBox="0 0 44 44" fill="none" xmlns="http://www.w3.org/2000/svg">
<path d="M31.4035 0.333008C38.7485 0.333008 43.6668 5.48967 43.6668 13.1597V30.8635C43.6668 38.5097 38.7485 43.6663 31.4035 43.6663H12.6185C5.2735 43.6663 0.333496 38.5097 0.333496 30.8635V13.1597C0.333496 5.48967 5.2735 0.333008 12.6185 0.333008H31.4035ZM31.0568 15.4997C30.3202 14.763 29.1068 14.763 28.3702 15.4997L19.4218 24.448L15.6302 20.6563C14.8935 19.9197 13.6802 19.9197 12.9435 20.6563C12.2068 21.393 12.2068 22.5847 12.9435 23.343L18.1002 28.478C18.4685 28.8463 18.9452 29.0197 19.4218 29.0197C19.9202 29.0197 20.3968 28.8463 20.7652 28.478L31.0568 18.1863C31.7935 17.4497 31.7935 16.258 31.0568 15.4997Z" fill="#FB9C46"/>
</svg>
