<svg width="66" height="66" viewBox="0 0 66 66" fill="none" xmlns="http://www.w3.org/2000/svg">
<circle cx="33" cy="33" r="32" stroke="white" stroke-width="2"/>
<path d="M45.2616 36.262C45.1486 36.378 44.7219 36.874 44.3244 37.282C41.9942 39.848 35.9152 44.048 32.7336 45.33C32.2504 45.536 31.0287 45.972 30.376 46C29.7506 46 29.1544 45.856 28.5855 45.564C27.8763 45.156 27.3074 44.514 26.9956 43.756C26.7949 43.23 26.4832 41.656 26.4832 41.628C26.1715 39.906 26 37.108 26 34.016C26 31.07 26.1715 28.386 26.4267 26.638C26.4559 26.61 26.7677 24.654 27.1086 23.984C27.734 22.76 28.9557 22 30.263 22H30.376C31.2275 22.03 33.018 22.79 33.018 22.818C36.0283 24.102 41.9669 28.096 44.3536 30.75C44.3536 30.75 45.0258 31.432 45.3181 31.858C45.774 32.47 46 33.228 46 33.986C46 34.832 45.7448 35.62 45.2616 36.262Z" fill="white"/>
</svg>
